<svg id="svg" version="1.1" width="400" height="297.6744186046512" xmlns="http://www.w3.org/2000/svg" xmlns:xlink="http://www.w3.org/1999/xlink" style="display: block;"><g id="svgg"><path id="path0" d="M112.716 41.392 C 109.190 41.923,104.629 45.675,98.584 53.016 C 97.302 54.572,91.605 60.469,85.923 66.121 C 80.242 71.772,75.059 77.066,74.407 77.885 C 73.755 78.704,67.892 84.736,61.379 91.288 C 54.865 97.841,48.957 104.006,48.250 104.989 C 47.542 105.972,41.657 112.158,35.172 118.736 C 12.381 141.853,8.420 146.045,8.011 147.479 C 7.809 148.190,7.532 148.899,7.396 149.054 C 7.072 149.425,7.075 154.436,7.399 155.105 C 7.537 155.389,7.961 156.264,8.341 157.049 C 8.754 157.903,9.640 158.970,10.547 159.706 C 11.971 160.862,19.249 167.977,48.467 196.781 C 55.146 203.366,61.214 209.179,61.951 209.699 C 62.688 210.220,68.997 216.326,75.971 223.268 C 82.944 230.210,88.829 235.890,89.048 235.890 C 89.266 235.890,94.417 240.827,100.493 246.862 C 113.325 259.605,112.847 259.272,118.001 259.073 C 122.640 258.894,122.345 259.116,135.571 245.827 C 141.907 239.461,147.458 233.783,147.907 233.209 C 148.356 232.636,154.108 226.739,160.690 220.104 C 167.272 213.470,173.269 207.238,174.018 206.255 C 176.057 203.577,194.258 185.555,194.924 185.555 C 195.264 185.555,199.954 190.005,206.850 196.873 C 213.101 203.098,218.398 208.191,218.620 208.191 C 218.843 208.191,224.693 213.786,231.621 220.625 C 274.207 262.667,269.847 258.690,274.170 259.442 C 279.095 260.300,281.381 259.203,286.973 253.298 C 289.428 250.705,296.262 243.749,302.159 237.841 C 308.057 231.932,313.883 225.893,315.107 224.420 C 316.331 222.947,322.277 216.783,328.321 210.722 C 334.365 204.661,340.087 198.697,341.036 197.468 C 341.986 196.240,347.801 190.212,353.958 184.073 C 360.115 177.935,365.153 172.796,365.153 172.655 C 365.153 172.513,368.680 168.824,372.990 164.456 C 377.301 160.089,381.097 156.113,381.426 155.622 C 383.139 153.065,383.903 148.020,382.876 146.050 C 382.631 145.581,382.430 144.989,382.429 144.734 C 382.424 143.352,374.784 135.189,371.705 133.276 C 370.968 132.818,365.159 127.232,358.797 120.864 C 352.435 114.496,346.470 108.649,345.543 107.871 C 344.616 107.093,338.898 101.526,332.837 95.500 C 326.776 89.473,320.879 83.794,319.732 82.880 C 318.585 81.966,312.210 75.810,305.566 69.201 C 298.921 62.593,293.300 57.185,293.075 57.185 C 292.850 57.185,289.575 54.069,285.797 50.261 C 277.414 41.810,275.901 41.061,270.020 42.446 L 267.768 42.976 254.981 55.814 C 247.948 62.875,241.427 69.657,240.490 70.886 C 239.553 72.115,233.725 78.213,227.540 84.438 C 221.354 90.663,215.768 96.371,215.128 97.123 C 211.765 101.070,197.271 115.264,196.602 115.264 C 196.114 115.264,195.012 114.407,193.033 112.487 C 191.459 110.959,189.769 109.411,189.278 109.046 C 188.786 108.681,183.090 103.117,176.620 96.682 C 170.149 90.247,164.051 84.405,163.068 83.700 C 162.085 82.996,155.823 77.043,149.153 70.472 C 121.078 42.815,120.891 42.639,119.118 42.027 C 117.110 41.334,114.691 41.094,112.716 41.392 M291.027 98.308 C 303.281 100.359,317.291 108.579,314.052 111.817 C 313.649 112.221,312.539 112.277,305.936 112.228 C 295.587 112.152,289.346 113.402,282.517 116.919 C 251.516 132.884,254.961 173.020,288.306 184.371 C 293.521 186.145,295.767 186.473,303.946 186.653 C 312.069 186.832,313.328 187.053,313.328 188.300 C 313.328 191.001,306.486 195.613,298.665 198.184 C 269.104 207.903,236.778 189.233,230.626 158.887 C 229.942 155.513,229.847 142.734,230.485 139.836 C 236.694 111.605,262.932 93.607,291.027 98.308 M77.079 112.286 C 77.384 112.856,77.443 114.169,77.329 117.887 C 76.792 135.421,82.760 148.867,94.985 157.669 C 116.747 173.338,145.611 159.772,151.621 131.050 C 152.134 128.600,152.318 126.406,152.473 120.923 C 152.692 113.141,152.818 112.584,154.358 112.584 C 157.521 112.584,163.334 123.614,164.869 132.526 C 165.540 136.421,165.343 151.200,164.575 154.579 C 158.256 182.386,129.522 200.433,102.666 193.462 C 94.780 191.415,90.607 189.407,84.140 184.549 C 67.820 172.288,60.279 151.563,64.681 131.067 C 67.159 119.524,74.777 107.985,77.079 112.286 " stroke="none" fill="#000000" fill-rule="evenodd"></path><path id="path1" d="M274.708 98.007 C 253.304 100.795,235.333 117.794,230.485 139.836 C 229.847 142.734,229.942 155.513,230.626 158.887 C 236.778 189.233,269.104 207.903,298.665 198.184 C 306.486 195.613,313.328 191.001,313.328 188.300 C 313.328 187.053,312.069 186.832,303.946 186.653 C 295.767 186.473,293.521 186.145,288.306 184.371 C 254.961 173.020,251.516 132.884,282.517 116.919 C 289.346 113.402,295.587 112.152,305.936 112.228 C 315.045 112.296,315.856 111.965,313.850 109.001 C 308.951 101.764,288.962 96.149,274.708 98.007 M73.555 112.481 C 70.230 115.485,66.226 123.870,64.681 131.067 C 60.279 151.563,67.820 172.288,84.140 184.549 C 90.607 189.407,94.780 191.415,102.666 193.462 C 129.522 200.433,158.256 182.386,164.575 154.579 C 165.343 151.200,165.540 136.421,164.869 132.526 C 163.334 123.614,157.521 112.584,154.358 112.584 C 152.818 112.584,152.692 113.141,152.473 120.923 C 152.318 126.406,152.134 128.600,151.621 131.050 C 145.611 159.772,116.747 173.338,94.985 157.669 C 82.760 148.867,76.792 135.421,77.329 117.887 C 77.534 111.175,76.554 109.771,73.555 112.481 " stroke="none" fill="#ffffff" fill-rule="evenodd"></path></g></svg>